<?xml version="1.0" encoding="UTF-8" standalone="no"?>
<!DOCTYPE svg PUBLIC "-//W3C//DTD SVG 1.0//EN" "http://www.w3.org/TR/2001/REC-SVG-20010904/DTD/svg10.dtd">
<svg xmlns="http://www.w3.org/2000/svg" xmlns:xlink="http://www.w3.org/1999/xlink" fill-rule="evenodd" height="2112" preserveAspectRatio="none" stroke-linecap="round" viewBox="0 0 6464 2112" width="6464">
<style type="text/css">
.brush0 { fill: rgb(255,255,255); }
.pen0 { stroke: rgb(0,0,0); stroke-width: 1; stroke-linejoin: round; }
.pen1 { stroke: rgb(0,0,0); stroke-width: 1; stroke-linejoin: round; }
.brush1 { fill: rgb(0,0,0); }
.pen2 { stroke: none; }
.pen3 { stroke: rgb(0,0,0); stroke-width: 8; stroke-linejoin: round; }
.pen4 { stroke: rgb(0,0,0); stroke-width: 17; stroke-linejoin: round; }
.font0 { font-size: 512px; font-family: Symbol, serif; }
.font1 { font-size: 184px; font-family: "Times New Roman", serif; }
.font2 { font-size: 317px; font-family: "Times New Roman", serif; }
.font3 { font-style: italic; font-size: 184px; font-family: "Times New Roman", serif; }
.font4 { font-style: italic; font-size: 317px; font-family: "Times New Roman", serif; }
.font5 { font-size: 166px; font-family: Symbol, serif; }
.font6 { font-size: 287px; font-family: Symbol, serif; }
.font7 { font-size: 430px; font-family: Symbol, serif; }
.brush2 { fill: rgb(0,0,0); }
.font8 { font-weight: bold; font-size: 16px; font-family: System, sans-serif; }
</style>
<g>
<line class="pen1" fill="none" x1="537" x2="572" y1="800" y2="780"/>
<line class="pen1" fill="none" x1="572" x2="659" y1="780" y2="919"/>
<line class="pen1" fill="none" x1="659" x2="752" y1="919" y2="554"/>
<line class="pen1" fill="none" x1="752" x2="956" y1="554" y2="554"/>
<polygon class="pen2 brush1" points="535,796 582,770 659,887 746,546 956,546 956,563 758,563 668,919 651,919 563,791 540,805"/>
<line class="pen3" fill="none" x1="507" x2="1632" y1="504" y2="504"/>
<line class="pen4" fill="none" x1="64" x2="1660" y1="1032" y2="1032"/>
<line class="pen1" fill="none" x1="2755" x2="2790" y1="1334" y2="1314"/>
<line class="pen1" fill="none" x1="2790" x2="2877" y1="1314" y2="1453"/>
<line class="pen1" fill="none" x1="2877" x2="2970" y1="1453" y2="1088"/>
<line class="pen1" fill="none" x1="2970" x2="3174" y1="1088" y2="1088"/>
<polygon class="pen2 brush1" points="2753,1330 2800,1304 2877,1421 2964,1080 3174,1080 3174,1097 2976,1097 2886,1453 2869,1453 2781,1325 2758,1339"/>
<line class="pen4" fill="none" x1="2725" x2="3850" y1="1032" y2="1032"/>
<line class="pen1" fill="none" x1="2026" x2="2059" y1="1213" y2="1162"/>
<line class="pen1" fill="none" x1="2059" x2="2146" y1="1162" y2="1546"/>
<line class="pen1" fill="none" x1="2146" x2="2240" y1="1546" y2="535"/>
<line class="pen1" fill="none" x1="2240" x2="3878" y1="535" y2="535"/>
<polygon class="pen2 brush1" points="2022,1210 2069,1139 2146,1460 2233,527 3878,527 3878,544 2248,544 2155,1546 2138,1546 2050,1185 2031,1216"/>
<line class="pen1" fill="none" x1="5113" x2="5148" y1="1582" y2="1562"/>
<line class="pen1" fill="none" x1="5148" x2="5235" y1="1562" y2="1701"/>
<line class="pen1" fill="none" x1="5235" x2="5328" y1="1701" y2="1336"/>
<line class="pen1" fill="none" x1="5328" x2="5532" y1="1336" y2="1336"/>
<polygon class="pen2 brush1" points="5111,1578 5158,1552 5235,1669 5322,1328 5532,1328 5532,1345 5334,1345 5244,1701 5227,1701 5139,1573 5116,1587"/>
<text class="font0" fill="rgb(0,0,0)" stroke="none" style="dominant-baseline: alphabetic;" x="4961" xml:space="preserve" y="1736">(</text>
<text class="font0" fill="rgb(0,0,0)" stroke="none" style="dominant-baseline: alphabetic;" x="6215" xml:space="preserve" y="1736">)</text>
<line class="pen1" fill="none" x1="4278" x2="4311" y1="1728" y2="1679"/>
<line class="pen1" fill="none" x1="4311" x2="4398" y1="1679" y2="2042"/>
<line class="pen1" fill="none" x1="4398" x2="4492" y1="2042" y2="1088"/>
<line class="pen1" fill="none" x1="4492" x2="6342" y1="1088" y2="1088"/>
<polygon class="pen2 brush1" points="4274,1725 4321,1658 4398,1960 4485,1080 6342,1080 6342,1097 4500,1097 4407,2042 4390,2042 4302,1701 4283,1731"/>
<line class="pen4" fill="none" x1="4246" x2="6370" y1="1032" y2="1032"/>
<text class="font1" fill="rgb(0,0,0)" stroke="none" style="dominant-baseline: alphabetic;" x="341" xml:lang="en" xml:space="preserve" y="926">1</text>
<text class="font1" fill="rgb(0,0,0)" stroke="none" style="dominant-baseline: alphabetic;" x="2535" xml:lang="en" xml:space="preserve" y="1458">1</text>
<text class="font1" fill="rgb(0,0,0)" stroke="none" style="dominant-baseline: alphabetic;" x="4787" xml:lang="en" xml:space="preserve" y="2011">1</text>
<text class="font2" fill="rgb(0,0,0)" stroke="none" style="dominant-baseline: alphabetic;" x="769" xml:lang="en" xml:space="preserve" y="891">2</text>
<text class="font2" fill="rgb(0,0,0)" stroke="none" style="dominant-baseline: alphabetic;" x="5220" xml:lang="en" xml:space="preserve" y="897">1</text>
<text class="font2" fill="rgb(0,0,0)" stroke="none" style="dominant-baseline: alphabetic;" x="2987" xml:lang="en" xml:space="preserve" y="1425">2</text>
<text class="font2" fill="rgb(0,0,0)" stroke="none" style="dominant-baseline: alphabetic;" x="5345" xml:lang="en" xml:space="preserve" y="1673">2</text>
<text class="font3" fill="rgb(0,0,0)" stroke="none" style="dominant-baseline: alphabetic;" x="220" xml:lang="en" xml:space="preserve" y="235">n</text>
<text class="font3" fill="rgb(0,0,0)" stroke="none" style="dominant-baseline: alphabetic;" x="1084" xml:lang="en" xml:space="preserve" y="459">k</text>
<text class="font3" fill="rgb(0,0,0)" stroke="none" style="dominant-baseline: alphabetic;" x="2414" xml:lang="en" xml:space="preserve" y="758">n</text>
<text class="font3" fill="rgb(0,0,0)" stroke="none" style="dominant-baseline: alphabetic;" x="118" xml:lang="en" xml:space="preserve" y="926">k</text>
<text class="font3" fill="rgb(0,0,0)" stroke="none" style="dominant-baseline: alphabetic;" x="1470 3302" xml:lang="en" xml:space="preserve" y="981">kk</text>
<text class="font3" fill="rgb(0,0,0)" stroke="none" style="dominant-baseline: alphabetic;" x="2043" xml:lang="en" xml:space="preserve" y="1117">n</text>
<text class="font3" fill="rgb(0,0,0)" stroke="none" style="dominant-baseline: alphabetic;" x="4666" xml:lang="en" xml:space="preserve" y="1311">n</text>
<text class="font3" fill="rgb(0,0,0)" stroke="none" style="dominant-baseline: alphabetic;" x="2312" xml:lang="en" xml:space="preserve" y="1458">k</text>
<text class="font3" fill="rgb(0,0,0)" stroke="none" style="dominant-baseline: alphabetic;" x="3688" xml:lang="en" xml:space="preserve" y="1515">k</text>
<text class="font3" fill="rgb(0,0,0)" stroke="none" style="dominant-baseline: alphabetic;" x="4295" xml:lang="en" xml:space="preserve" y="1636">n</text>
<text class="font3" fill="rgb(0,0,0)" stroke="none" style="dominant-baseline: alphabetic;" x="6046" xml:lang="en" xml:space="preserve" y="1763">k</text>
<text class="font3" fill="rgb(0,0,0)" stroke="none" style="dominant-baseline: alphabetic;" x="4564" xml:lang="en" xml:space="preserve" y="2011">k</text>
<text class="font4" fill="rgb(0,0,0)" stroke="none" style="dominant-baseline: alphabetic;" x="931" xml:lang="en" xml:space="preserve" y="369">x</text>
<text class="font4" fill="rgb(0,0,0)" stroke="none" style="dominant-baseline: alphabetic;" x="1317 3149" xml:lang="en" xml:space="preserve" y="891">xx</text>
<text class="font4" fill="rgb(0,0,0)" stroke="none" style="dominant-baseline: alphabetic;" x="777" xml:lang="en" xml:space="preserve" y="1396">n</text>
<text class="font4" fill="rgb(0,0,0)" stroke="none" style="dominant-baseline: alphabetic;" x="3535" xml:lang="en" xml:space="preserve" y="1425">x</text>
<text class="font4" fill="rgb(0,0,0)" stroke="none" style="dominant-baseline: alphabetic;" x="5893" xml:lang="en" xml:space="preserve" y="1673">x</text>
<text class="font5" fill="rgb(0,0,0)" stroke="none" style="dominant-baseline: alphabetic;" x="237" xml:space="preserve" y="926">=</text>
<text class="font5" fill="rgb(0,0,0)" stroke="none" style="dominant-baseline: alphabetic;" x="2431" xml:space="preserve" y="1458">=</text>
<text class="font5" fill="rgb(0,0,0)" stroke="none" style="dominant-baseline: alphabetic;" x="4683" xml:space="preserve" y="2011">=</text>
<text class="font6" fill="rgb(0,0,0)" stroke="none" style="dominant-baseline: alphabetic;" x="1035" xml:space="preserve" y="891">+</text>
<text class="font6" fill="rgb(0,0,0)" stroke="none" style="dominant-baseline: alphabetic;" x="1745 3969" xml:space="preserve" y="1120">³=</text>
<text class="font6" fill="rgb(0,0,0)" stroke="none" style="dominant-baseline: alphabetic;" x="3253" xml:space="preserve" y="1425">+</text>
<text class="font6" fill="rgb(0,0,0)" stroke="none" style="dominant-baseline: alphabetic;" x="5611" xml:space="preserve" y="1673">+</text>
<text class="font7" fill="rgb(0,0,0)" stroke="none" style="dominant-baseline: alphabetic;" x="84" xml:space="preserve" y="673">å</text>
<text class="font7" fill="rgb(0,0,0)" stroke="none" style="dominant-baseline: alphabetic;" x="2245" xml:space="preserve" y="1205">Õ</text>
<text class="font7" fill="rgb(0,0,0)" stroke="none" style="dominant-baseline: alphabetic;" x="4497" xml:space="preserve" y="1758">Õ</text>
</g>
</svg>
